<?xml version="1.0" standalone="no"?>
<!DOCTYPE svg PUBLIC "-//W3C//DTD SVG 20010904//EN"
 "http://www.w3.org/TR/2001/REC-SVG-20010904/DTD/svg10.dtd">
<svg version="1.0" xmlns="http://www.w3.org/2000/svg"
 width="500.000000pt" height="500.000000pt" viewBox="0 0 500.000000 500.000000"
 preserveAspectRatio="xMidYMid meet">

<g transform="translate(0.000000,500.000000) scale(0.100000,-0.100000)"
fill="#000000" stroke="none">
<path d="M2348 3710 c-331 -60 -604 -312 -690 -639 -27 -106 -27 -313 2 -426
26 -106 107 -267 165 -330 l46 -50 -41 55 c-51 68 -113 196 -135 275 -10 35
-19 117 -22 195 -5 117 -3 148 16 220 106 421 501 690 922 631 104 -15 163
-33 259 -81 213 -107 371 -304 430 -537 65 -250 15 -499 -140 -710 -38 -51
-41 -58 -14 -28 251 275 285 718 78 1037 -115 178 -293 311 -494 369 -84 23
-299 34 -382 19z"/>
<path d="M2447 3313 c-4 -3 -7 -21 -7 -40 0 -23 -5 -33 -15 -33 -10 0 -15 10
-15 30 0 17 -3 30 -7 30 -18 0 -74 -48 -97 -85 l-27 -40 61 -3 c42 -2 60 -7
60 -16 0 -19 -23 -26 -81 -26 -37 0 -49 -4 -49 -15 0 -12 14 -15 66 -15 57 0
65 -2 62 -17 -3 -15 -16 -19 -66 -21 -45 -2 -62 -7 -62 -17 0 -10 17 -15 63
-17 47 -2 62 -7 62 -18 0 -11 -15 -16 -62 -18 l-63 -3 0 -80 c0 -72 -3 -84
-27 -117 -29 -38 -26 -37 45 17 39 31 42 36 42 82 l0 49 35 0 c31 0 35 -3 35
-26 l0 -26 49 36 48 36 129 -93 c162 -117 163 -118 131 -75 -24 31 -27 43 -27
116 l0 82 -65 0 c-58 0 -65 2 -65 20 0 18 7 20 65 20 50 0 65 3 65 15 0 10
-16 15 -62 17 -50 2 -63 6 -66 21 -3 15 5 17 62 17 52 0 66 3 66 15 0 11 -12
15 -49 15 -59 0 -81 7 -81 26 0 10 15 14 55 14 43 0 55 3 55 15 0 17 -93 115
-109 115 -5 0 -11 -12 -13 -27 -5 -43 -32 -36 -36 10 -2 23 -8 37 -17 37 -9 0
-15 -14 -17 -37 -2 -26 -8 -38 -18 -38 -10 0 -16 12 -18 38 -3 34 -18 48 -35
30z"/>
<path d="M2383 2807 l-113 -81 0 -50 c2 -141 96 -239 229 -239 125 0 214 88
226 224 l6 64 -93 65 c-160 113 -126 110 -255 17z m107 -107 c0 -27 -3 -30
-30 -30 -35 0 -38 12 -10 40 28 28 40 25 40 -10z m52 13 c32 -37 31 -43 -6
-43 -31 0 -36 3 -36 23 0 40 18 48 42 20z m-52 -88 c0 -32 -2 -35 -30 -35 -28
0 -30 3 -30 35 0 32 2 35 30 35 28 0 30 -3 30 -35z m78 -3 c3 -32 2 -33 -30
-30 -22 2 -34 9 -36 21 -6 33 6 49 35 45 24 -2 29 -8 31 -36z"/>
<path d="M1987 2833 c-4 -3 -7 -79 -7 -168 0 -123 3 -165 13 -174 30 -24 37 9
37 165 0 84 -3 159 -6 168 -6 16 -26 21 -37 9z"/>
<path d="M2977 2833 c-13 -12 -8 -341 5 -349 28 -17 38 29 38 174 0 154 -13
206 -43 175z"/>
<path d="M2065 2788 c-3 -8 -4 -70 -3 -139 3 -102 6 -124 18 -124 13 0 15 22
15 134 0 99 -3 135 -12 138 -7 3 -15 -2 -18 -9z"/>
<path d="M2896 2784 c-3 -9 -6 -64 -6 -124 0 -115 4 -140 25 -140 21 0 25 25
25 140 0 115 -4 140 -25 140 -7 0 -16 -7 -19 -16z"/>
<path d="M1906 2745 c-9 -25 -7 -158 3 -174 5 -8 16 -11 25 -8 24 10 19 190
-5 195 -9 2 -19 -4 -23 -13z"/>
<path d="M3050 2659 c0 -90 2 -100 18 -97 14 3 17 17 20 101 3 92 2 97 -18 97
-19 0 -20 -6 -20 -101z"/>
<path d="M1832 2663 c2 -44 7 -58 18 -58 11 0 16 14 18 58 3 52 1 57 -18 57
-19 0 -21 -5 -18 -57z"/>
<path d="M2180 2660 c0 -138 87 -258 220 -303 l45 -15 3 -80 3 -79 -46 -12
c-25 -6 -45 -16 -45 -21 0 -6 -16 -10 -35 -10 -24 0 -35 -5 -35 -15 0 -13 30
-15 210 -15 180 0 210 2 210 15 0 10 -11 15 -35 15 -19 0 -35 4 -35 9 0 6 -21
16 -47 23 l-48 14 -3 77 c-2 57 1 78 10 81 74 21 120 46 164 88 63 60 95 129
102 221 l5 67 -37 0 c-25 0 -36 -4 -36 -15 0 -8 7 -15 15 -15 20 0 20 -78 0
-128 -41 -96 -104 -152 -203 -177 -166 -43 -324 72 -348 253 -6 49 -5 52 15
52 12 0 21 6 21 15 0 10 -11 15 -35 15 l-35 0 0 -60z"/>
<path d="M3126 2705 c-9 -24 -7 -78 3 -94 5 -8 16 -11 26 -8 23 9 18 110 -6
115 -9 2 -19 -4 -23 -13z"/>
<path d="M1890 2235 c13 -14 26 -25 28 -25 3 0 -5 11 -18 25 -13 14 -26 25
-28 25 -3 0 5 -11 18 -25z"/>
<path d="M3069 2213 l-24 -28 28 24 c25 23 32 31 24 31 -2 0 -14 -12 -28 -27z"/>
<path d="M1176 1934 c-19 -19 -22 -107 -3 -122 6 -6 29 -13 50 -17 30 -6 37
-11 37 -31 0 -15 -6 -24 -15 -24 -8 0 -15 7 -15 15 0 10 -11 15 -35 15 -30 0
-35 -3 -35 -24 0 -39 25 -56 81 -56 76 0 89 11 89 73 0 63 -11 77 -62 77 -36
0 -38 2 -38 30 0 20 5 30 15 30 8 0 15 -7 15 -15 0 -10 11 -15 35 -15 32 0 35
2 35 30 0 19 -7 33 -19 40 -31 16 -117 12 -135 -6z"/>
<path d="M2020 1820 l0 -130 35 0 35 0 1 73 c1 72 1 72 13 32 9 -32 17 -41 38
-43 24 -3 28 2 41 45 l15 48 1 -77 1 -78 30 0 30 0 0 130 0 130 -39 0 -38 0
-18 -66 c-10 -36 -21 -62 -24 -57 -4 4 -15 34 -25 66 -17 57 -17 57 -57 57
l-39 0 0 -130z"/>
<path d="M3750 1910 c0 -11 -4 -20 -10 -20 -5 0 -10 -11 -10 -25 0 -14 5 -25
10 -25 6 0 10 -24 10 -53 0 -68 19 -97 66 -97 30 0 34 3 34 25 0 16 -6 25 -15
25 -11 0 -15 12 -15 50 0 38 4 50 15 50 9 0 15 9 15 25 0 16 -6 25 -15 25 -8
0 -15 9 -15 20 0 16 -7 20 -35 20 -28 0 -35 -4 -35 -20z"/>
<path d="M1372 1878 c-7 -7 -12 -43 -12 -90 0 -66 3 -79 19 -88 27 -14 114
-13 129 2 7 7 12 42 12 88 0 46 -5 81 -12 88 -7 7 -37 12 -68 12 -31 0 -61 -5
-68 -12z m88 -88 c0 -38 -4 -50 -15 -50 -11 0 -15 12 -15 50 0 38 4 50 15 50
11 0 15 -12 15 -50z"/>
<path d="M1560 1789 l0 -99 30 0 29 0 3 72 c2 46 7 73 16 76 9 3 12 -16 12
-72 l0 -76 35 0 35 0 0 89 c0 59 -4 92 -12 99 -7 5 -43 10 -80 10 l-68 1 0
-100z"/>
<path d="M1761 1877 c-6 -6 -11 -43 -11 -84 0 -63 3 -74 21 -83 11 -7 32 -9
45 -6 14 4 24 2 24 -4 0 -5 -18 -10 -40 -10 -36 0 -40 -2 -40 -25 0 -24 2 -25
63 -25 36 0 68 5 75 12 8 8 12 50 12 125 l0 112 -69 0 c-37 0 -73 -5 -80 -12z
m79 -82 c0 -25 -4 -45 -10 -45 -5 0 -10 20 -10 45 0 25 5 45 10 45 6 0 10 -20
10 -45z"/>
<path d="M2305 1874 c-21 -21 -21 -147 0 -167 9 -10 37 -15 85 -15 l70 -1 0
99 0 99 -70 0 c-49 0 -75 -5 -85 -15z m85 -84 c0 -38 -4 -50 -15 -50 -11 0
-15 12 -15 50 0 38 4 50 15 50 11 0 15 -12 15 -50z"/>
<path d="M2490 1790 l0 -100 35 0 35 0 0 76 c0 56 3 75 13 72 8 -3 13 -30 15
-76 l3 -72 29 0 30 0 0 89 c0 59 -4 92 -12 99 -7 6 -43 10 -80 11 l-68 0 0
-99z"/>
<path d="M2691 1877 c-6 -6 -11 -45 -11 -89 0 -91 4 -95 98 -96 l62 -1 0 99 0
98 -69 0 c-38 0 -74 -5 -80 -11z m84 -87 c0 -26 -5 -45 -12 -47 -9 -3 -13 10
-13 47 0 37 4 50 13 48 7 -3 12 -22 12 -48z"/>
<path d="M2885 1874 c-23 -23 -21 -136 3 -157 22 -20 53 -22 70 -5 9 9 12 8
12 -5 0 -13 -9 -17 -45 -17 -41 0 -45 -2 -45 -25 0 -24 2 -25 64 -25 92 0 96
6 96 140 l0 109 -70 0 c-49 0 -75 -5 -85 -15z m83 -76 c-4 -59 -28 -63 -28 -4
0 35 4 46 16 46 12 0 14 -9 12 -42z"/>
<path d="M3070 1790 l0 -100 35 0 35 0 0 76 c0 56 3 75 13 72 8 -3 13 -30 15
-76 l3 -72 29 0 29 0 3 72 c2 46 7 73 16 76 9 3 12 -16 12 -72 l0 -76 35 0 35
0 0 88 c0 55 -4 92 -12 100 -15 15 -53 16 -78 2 -12 -6 -21 -6 -25 -1 -3 5
-37 10 -75 10 l-70 0 0 -99z"/>
<path d="M3372 1878 c-7 -7 -12 -43 -12 -90 0 -90 7 -98 87 -98 54 0 73 12 73
47 0 19 -5 23 -30 23 -16 0 -30 -4 -30 -10 0 -5 -9 -10 -20 -10 -11 0 -20 7
-20 15 0 11 12 15 50 15 l50 0 0 48 c0 26 -5 53 -12 60 -7 7 -37 12 -68 12
-31 0 -61 -5 -68 -12z m88 -53 c0 -8 -9 -15 -20 -15 -11 0 -20 7 -20 15 0 8 9
15 20 15 11 0 20 -7 20 -15z"/>
<path d="M3550 1790 l0 -100 35 0 35 0 0 75 c0 60 3 75 15 75 12 0 15 -15 15
-75 l0 -75 36 0 36 0 -4 90 c-2 66 -7 93 -17 100 -8 5 -46 9 -83 9 l-68 0 0
-99z"/>
<path d="M1571 1381 c-6 -39 -11 -74 -11 -79 0 -16 83 -12 102 5 21 18 24 63
6 81 -7 7 -22 12 -35 12 -18 0 -23 6 -23 25 0 14 -6 25 -14 25 -9 0 -17 -23
-25 -69z m77 -33 c-4 -30 -48 -39 -48 -10 0 10 3 22 7 25 3 4 15 7 25 7 14 0
19 -6 16 -22z"/>
<path d="M1925 1373 c-38 -65 -43 -79 -29 -82 10 -1 21 4 26 13 12 21 74 22
82 1 5 -15 36 -21 36 -7 0 4 -9 38 -18 77 -25 96 -39 96 -97 -2z m65 -10 c0
-7 -9 -13 -20 -13 -17 0 -18 3 -8 25 8 19 14 22 20 13 4 -7 8 -19 8 -25z"/>
<path d="M2465 1440 c-8 -13 4 -32 16 -25 12 8 12 35 0 35 -6 0 -13 -4 -16
-10z"/>
<path d="M2846 1442 c-4 -8 -26 -126 -26 -144 0 -5 20 -8 43 -8 52 0 78 23 76
66 -1 16 1 36 5 45 10 24 -20 49 -59 49 -19 0 -36 -4 -39 -8z m72 -39 c2 -8
-6 -13 -22 -13 -17 0 -26 5 -26 16 0 19 41 16 48 -3z m-10 -60 c-2 -10 -13
-19 -26 -21 -17 -3 -22 2 -22 17 0 16 6 21 26 21 19 0 25 -5 22 -17z"/>
<path d="M3106 1403 c-4 -27 -10 -63 -13 -80 -4 -25 -2 -33 10 -33 11 0 18 18
26 63 14 83 14 97 -3 97 -9 0 -16 -17 -20 -47z"/>
<path d="M1717 1354 c15 -43 15 -49 -2 -76 -16 -29 -16 -30 0 -26 23 4 110
141 93 147 -6 2 -22 -9 -34 -24 l-23 -29 -6 27 c-5 17 -14 27 -25 27 -18 0
-18 -2 -3 -46z"/>
<path d="M2070 1381 c0 -9 -3 -33 -6 -53 -5 -30 -3 -38 8 -38 10 0 18 14 22
41 5 31 10 40 24 37 13 -3 16 -12 14 -41 -3 -27 0 -37 11 -37 19 0 32 77 17
95 -17 20 -90 17 -90 -4z"/>
<path d="M2206 1381 c-22 -24 -21 -78 2 -85 22 -7 82 -5 86 3 2 3 6 27 10 52
l7 46 -44 1 c-31 1 -50 -4 -61 -17z m62 -33 c-4 -30 -48 -39 -48 -10 0 10 3
22 7 25 3 4 15 7 25 7 14 0 19 -6 16 -22z"/>
<path d="M2326 1361 c-9 -56 -7 -71 9 -71 9 0 15 9 15 24 0 35 10 56 26 56 10
0 14 -12 14 -40 0 -55 26 -55 32 0 5 55 -5 69 -51 68 -37 0 -39 -2 -45 -37z"/>
<path d="M2450 1383 c0 -10 -3 -35 -6 -55 -5 -30 -3 -38 8 -38 10 0 18 14 22
38 9 57 7 72 -9 72 -8 0 -15 -8 -15 -17z"/>
<path d="M2510 1388 c0 -6 6 -27 12 -46 11 -28 10 -38 -4 -63 -16 -27 -16 -29
0 -29 14 0 83 97 100 142 9 21 -28 5 -44 -19 l-17 -28 -10 28 c-9 27 -37 38
-37 15z"/>
<path d="M2646 1378 c-19 -27 -21 -62 -3 -76 7 -6 31 -11 54 -10 39 0 41 2 47
37 11 66 10 68 -38 69 -36 2 -48 -2 -60 -20z m66 -33 c-7 -37 -52 -42 -52 -6
0 24 10 32 35 29 14 -2 19 -9 17 -23z"/>
<path d="M2980 1380 c-22 -22 -26 -60 -8 -78 18 -18 78 -16 78 3 0 8 -6 12
-14 9 -8 -3 -23 -1 -33 5 -15 8 -10 10 25 11 37 0 42 3 42 23 0 48 -53 64 -90
27z m60 -20 c0 -5 -9 -10 -20 -10 -11 0 -20 5 -20 10 0 6 9 10 20 10 11 0 20
-4 20 -10z"/>
<path d="M3167 1382 c-21 -23 -22 -65 -3 -81 17 -14 73 -11 67 4 -2 6 -12 9
-22 7 -9 -2 -20 2 -24 8 -4 6 7 10 30 10 40 0 53 17 35 49 -14 27 -61 28 -83
3z m53 -22 c0 -5 -9 -10 -21 -10 -11 0 -17 5 -14 10 3 6 13 10 21 10 8 0 14
-4 14 -10z"/>
<path d="M3290 1376 c0 -82 33 -114 60 -58 l14 27 4 -27 c6 -46 38 -36 67 22
29 58 30 60 10 60 -8 0 -22 -17 -32 -37 l-17 -38 -4 38 c-2 24 -8 37 -17 37
-8 0 -22 -17 -32 -37 l-17 -38 -4 38 c-4 42 -32 54 -32 13z"/>
</g>
</svg>
